<?xml version="1.0" encoding="utf-8"?>
<!-- Generator: Adobe Illustrator 16.0.0, SVG Export Plug-In . SVG Version: 6.00 Build 0)  -->
<!DOCTYPE svg PUBLIC "-//W3C//DTD SVG 1.1//EN" "http://www.w3.org/Graphics/SVG/1.1/DTD/svg11.dtd">
<svg version="1.1" id="Layer_1" xmlns="http://www.w3.org/2000/svg" xmlns:xlink="http://www.w3.org/1999/xlink" x="0px" y="0px"
	 width="750px" height="500px" viewBox="0 0 750 500" enable-background="new 0 0 750 500" xml:space="preserve">
<g>
	<path fill-rule="evenodd" clip-rule="evenodd" fill="#1B1B1B" d="M197.995,220.248c17.976,0,35.877,0,53.88,0
		c0,4.49,0,8.967,0,13.632c-12.896,0-25.819,0-38.836,0c0,6.944,0,13.704,0,20.58c12.63,0,25.195,0,37.848,0
		c0,4.596,0,9.074,0,13.729c-12.577,0-25.169,0-37.852,0c0,9.82,0,19.465,0,29.287c23.15,0,46.325,0,69.587,0
		c0,4.652,0,9.131,0,13.713c-28.17,0-56.348,0-84.627,0C197.995,280.936,197.995,250.674,197.995,220.248z"/>
	<path fill-rule="evenodd" clip-rule="evenodd" fill="#0F9347" d="M570.119,343.223c-0.541-1.365-2.007-6.549-2.454-7.943
		c-6.611-20.674-13.308-37.154-22.228-56.945c-6.531-14.488-13.855-28.558-23.549-41.245c-6.617-8.66-14.152-16.394-23.477-22.205
		c-11.985-7.469-25.012-10.182-38.994-8.438c-12.463,1.556-23.873,6.129-34.817,12.086c-7.663,4.172-22.18,14.309-22.446,14.243
		c1.561-1.634,5.412-5.553,7.058-7.097c9.149-8.586,16.148-14.723,26.745-21.525c8.415-5.402,17.281-9.859,27.035-12.351
		c18.703-4.776,34.881,0.086,48.918,12.915c8.416,7.692,14.959,16.85,20.619,26.69c7.855,13.661,13.922,28.119,19.127,42.949
		c5.057,14.418,9.342,29.078,13.004,43.912C566.635,326.266,570.215,343.191,570.119,343.223z"/>
	<path fill-rule="evenodd" clip-rule="evenodd" fill="#5471AE" d="M583.109,237.347c-10.059-2.924-19.789-6.701-29.143-11.417
		c-9.16-4.618-17.688-10.124-24.814-17.64c-7.418-7.822-12.49-16.791-14.049-27.575c-1.23-8.513-0.26-16.851,1.996-25.086
		c2.639-9.626,6.828-18.572,11.854-27.16c8.168-13.962,18.012-26.679,28.588-38.879c10.293-11.875,21.182-23.175,32.492-34.072
		c4.826-4.649,15.146-14.052,15.459-14.116c-2.021,2.345-4.066,4.673-6.064,7.039c-7.25,8.585-14.684,17.027-21.672,25.822
		c-6.779,8.533-13.363,17.249-19.555,26.214c-9.18,13.289-17.131,27.292-22.379,42.671c-2.83,8.292-4.5,16.827-4.512,25.592
		c-0.018,13.179,4.176,24.999,12.027,35.567c5.834,7.852,13.102,14.148,21.078,19.689c8.818,6.125,18.256,11.144,28.045,15.517
		c0.221,0.1,0.441,0.205,0.662,0.307C593.1,239.892,586.406,238.304,583.109,237.347z"/>
	<path fill-rule="evenodd" clip-rule="evenodd" fill="#8F86B8" d="M511.586,91.973c1.023,5.597,1.988,11.238,2.41,16.902
		c0.449,6.008,0.4,12.07,0.25,18.1c-0.145,5.711-1.209,11.328-2.922,16.791c-2.516,8.016-6.486,15.143-12.424,21.212
		c-7.12,7.276-15.779,11.677-25.406,14.454c-7.189,2.072-14.553,3.098-22.002,3.548c-3.32,0.2-6.654,0.526-9.968,0.407
		c-5.9-0.214-11.816-0.492-17.679-1.163c-8.627-0.987-17.239-2.183-25.807-3.599c-6.106-1.008-12.154-2.418-18.182-3.844
		c-7.773-1.838-15.531-3.753-23.237-5.851c-7.464-2.032-22.554-6.659-22.644-6.888c3.625,0.708,7.242,1.476,10.88,2.113
		c9.133,1.6,18.269,3.188,27.419,4.687c5.043,0.825,10.104,1.569,15.18,2.149c5.123,0.586,10.271,0.98,15.416,1.354
		c5.055,0.366,10.119,0.742,15.183,0.849c4.361,0.091,8.735-0.099,13.093-0.337c4.107-0.225,8.219-0.529,12.297-1.05
		c11.533-1.472,22.596-4.537,32.77-10.323c6.367-3.621,11.779-8.373,16.304-14.146c6.827-8.71,10.794-18.703,12.938-29.429
		c1.023-5.121,1.566-10.354,2.055-15.562c0.432-4.586,0.684-9.208,0.656-13.813c-0.029-5.145-0.463-10.287-0.719-15.43
		C507.494,73.09,510.426,85.638,511.586,91.973z"/>
	<path fill-rule="evenodd" clip-rule="evenodd" fill="#1B1B1B" d="M167.266,208.691c-3.98,0-18.945,0-22.759,0
		c0-4.629,0-9.105,0-13.672c20.137,0,40.23,0,60.396,0c0,4.539,0,9.018,0,13.664c-7.523,0-15,0-22.629,0c0,25.847,0,51.53,0,77.284
		c-5.052,0-9.952,0-15.009,0C167.266,260.277,167.266,234.595,167.266,208.691z"/>
	<path fill-rule="evenodd" clip-rule="evenodd" fill="#1B1B1B" d="M267.76,203.247c4.972,0,9.869,0,14.86,0
		c0,30.229,0,60.408,0,90.691c-4.916,0-9.843,0-14.86,0C267.76,263.764,267.76,233.585,267.76,203.247z"/>
	<path fill-rule="evenodd" clip-rule="evenodd" fill="#F3AA1E" d="M489.953,181.486c-0.569-5.659,4.889-11.381,11.24-11.414
		c6.32-0.033,11.49,5.189,11.465,11.553c-0.023,6.197-5.201,11.396-11.438,11.315C494.927,192.859,489.439,187.748,489.953,181.486z
		"/>
	<path fill="#1B1B1B" d="M173.168,363.365l20.951-21.408h8.053l-22.194,22.193l22.587,27.17h-8.314l-18.594-22.979l-2.488,2.355
		v20.623h-6.154v-49.363h6.154V363.365z"/>
	<path fill="#1B1B1B" d="M205.135,391.32v-49.363h26.516v5.629h-20.361V361.4h19.772v5.631h-19.772v18.66h20.361v5.629H205.135z"/>
	<path fill="#1B1B1B" d="M235.814,391.32V339.6l37.057,38.824v-36.467h6.154v51.393l-37.057-38.822v36.793H235.814z"/>
	<path fill="#1B1B1B" d="M299.711,347.586v43.734h-6.154v-43.734h-11.719v-5.629h29.593v5.629H299.711z"/>
	<path fill="#1B1B1B" d="M320.692,370.633v20.688h-6.154v-49.363h7.071c7.288,0,12.428,1.189,15.418,3.566
		c2.989,2.381,4.485,5.949,4.485,10.705c0,4.889-1.604,8.512-4.813,10.869c-3.208,2.355-7.365,3.535-12.473,3.535H320.692z
		 M320.692,347.455v17.678h1.964c1.79,0,3.372-0.109,4.747-0.328c1.375-0.217,2.738-0.621,4.092-1.211
		c1.353-0.588,2.4-1.516,3.143-2.781s1.113-2.838,1.113-4.715c0-1.834-0.393-3.359-1.179-4.582
		c-0.785-1.223-1.898-2.105-3.339-2.652c-1.44-0.545-2.838-0.916-4.19-1.113c-1.354-0.195-2.925-0.295-4.714-0.295H320.692z"/>
	<path fill="#1B1B1B" d="M352.951,341.957v49.363h-6.154v-49.363H352.951z"/>
	<path fill="#1B1B1B" d="M364.973,363.365l20.951-21.408h8.053l-22.194,22.193l22.587,27.17h-8.314l-18.594-22.979l-2.488,2.355
		v20.623h-6.154v-49.363h6.154V363.365z"/>
	<path fill="#1B1B1B" d="M402.853,361.859h23.504v-19.902h6.154v49.363h-6.154v-23.699h-23.504v23.699h-6.154v-49.363h6.154V361.859
		z"/>
	<path fill="#1B1B1B" d="M190.19,457.615l-14.796-33.652h-0.131l-5.762,32.605h-6.351l10.082-51.461l16.957,38.891l16.957-38.891
		l10.082,51.461h-6.351l-5.761-32.605h-0.131L190.19,457.615z"/>
	<path fill="#1B1B1B" d="M253.151,444.193h-22.652l-5.631,12.375h-6.612l23.569-51.461l23.569,51.461h-6.612L253.151,444.193z
		 M250.599,438.563l-8.773-19.967l-8.773,19.967H250.599z"/>
	<path fill="#1B1B1B" d="M273.297,428.611l20.95-21.408h8.053l-22.194,22.195l22.588,27.17h-8.315l-18.594-22.98l-2.487,2.357
		v20.623h-6.154v-49.365h6.154V428.611z"/>
	<path fill="#1B1B1B" d="M305.264,456.568v-49.365h26.516v5.631h-20.361v13.814h19.771v5.629h-19.771v18.66h20.361v5.631H305.264z"
		/>
	<path fill="#1B1B1B" d="M383.146,413.717c5.084-5.041,11.163-7.561,18.233-7.561c7.071,0,13.148,2.52,18.234,7.561
		c5.084,5.041,7.627,11.098,7.627,18.168c0,7.291-2.511,13.4-7.529,18.332c-5.02,4.934-11.13,7.398-18.332,7.398
		c-7.201,0-13.313-2.465-18.331-7.398c-5.02-4.932-7.529-11.041-7.529-18.332C375.52,424.814,378.062,418.758,383.146,413.717z
		 M387.5,446.061c3.885,3.861,8.512,5.793,13.88,5.793c5.369,0,9.995-1.932,13.88-5.793c3.885-3.863,5.827-8.588,5.827-14.176
		c0-5.541-1.866-10.256-5.598-14.141s-8.436-5.828-14.109-5.828s-10.377,1.943-14.108,5.828s-5.598,8.6-5.598,14.141
		C381.674,437.473,383.615,442.197,387.5,446.061z"/>
	<path fill="#1B1B1B" d="M430.92,456.568v-51.723l37.056,38.824v-36.467h6.154v51.395l-37.056-38.824v36.795H430.92z"/>
	<path fill="#1B1B1B" d="M486.89,407.203v49.365h-6.154v-49.365H486.89z"/>
	<path fill="#1B1B1B" d="M524.468,444.193h-22.652l-5.631,12.375h-6.612l23.569-51.461l23.569,51.461h-6.612L524.468,444.193z
		 M521.914,438.563l-8.772-19.967l-8.773,19.967H521.914z"/>
	<path fill="#1B1B1B" d="M572.125,412.834v-5.631h-33.274l16.613,24.646l-16.613,24.723h33.274v-5.648
		c0,0-14.807,0.014-22.708,0.012c6.021-8.9,12.815-19.051,12.833-19.051c-0.008-0.01-6.813-10.191-12.833-19.064
		C557.318,412.818,572.125,412.834,572.125,412.834z"/>
	<path fill="#1B1B1B" d="M468.785,347.586v-5.631h-33.274l16.613,24.646l-16.613,24.723h33.274v-5.648
		c0,0-14.807,0.014-22.708,0.012c6.021-8.9,12.815-19.051,12.833-19.051c-0.008-0.01-6.813-10.191-12.833-19.064
		C453.979,347.57,468.785,347.586,468.785,347.586z"/>
	<path fill="#1B1B1B" d="M357.075,405.107l-23.569,51.461h6.612l0.086-0.002h14.33h5.082h14.331l0.086,0.002h6.611L357.075,405.107z
		 M359.856,450.936h-5.563h-11.537l14.318-32.34l14.319,32.34H359.856z"/>
</g>
</svg>
